<svg id="Layer_1" data-name="Layer 1" xmlns="http://www.w3.org/2000/svg" viewBox="0 0 512 512"><path d="M465.88,263.74a20,20,0,0,1-18.63,12.72H418.09V431.8a20,20,0,0,1-20,20H113.91a20,20,0,0,1-20-20V276.46H64.75A20,20,0,0,1,51.2,241.75L242.45,65.5a20,20,0,0,1,27.1,0l54.16,49.91a20,20,0,0,1-27.11,29.42L256,107.41,116.14,236.29a20,20,0,0,1,17.75,19.2c0,.11,0,.23,0,.34s0,.42,0,.63V411.8H378.09V256.46c0-.21,0-.42,0-.63s0-.23,0-.34a20,20,0,0,1,17.75-19.2L379.37,221.1a20,20,0,0,1,27.11-29.42l54.32,50.07A20,20,0,0,1,465.88,263.74Z"/></svg>